<?xml version="1.0" encoding="utf-8"?><svg version="1.1" id="Layer_1" xmlns="http://www.w3.org/2000/svg" xmlns:xlink="http://www.w3.org/1999/xlink" x="0px" y="0px" viewBox="0 0 122.88 111.33" style="enable-background:new 0 0 122.88 111.33" xml:space="preserve"><style type="text/css">.st0{fill-rule:evenodd;clip-rule:evenodd;}</style><g><path class="st0" d="M23.03,5.8c10,0,18.51,6.38,21.7,15.28c5.58-3.13,12.02-4.91,18.87-4.91c21.35,0,38.67,17.32,38.67,38.67 c0,1.26-0.06,2.51-0.18,3.75c10.71,1.98,18.82,11.37,18.82,22.65c0,12.72-10.31,23.03-23.03,23.03c-9.19,0-17.12-5.38-20.82-13.16 c-4.19,1.56-8.72,2.41-13.46,2.41c-21.35,0-38.67-17.32-38.67-38.67c0-1.03,0.04-2.05,0.12-3.06c-0.66,0.06-1.34,0.09-2.02,0.09 C10.31,51.86,0,41.55,0,28.83C0,16.11,10.31,5.8,23.03,5.8L23.03,5.8z M67.17,106.03c1.24-0.22,2.43,0.62,2.64,1.86 c0.22,1.24-0.62,2.43-1.86,2.64c-2.45,0.44-4.93,0.69-7.41,0.77c-11.91,0.39-23.22-3.39-32.1-10.33 c-8.9-6.95-15.36-17.07-17.53-29.34c-0.24-1.35-0.43-2.73-0.56-4.15l-2.37,0.3l-4.74,0.61l8.39-11.77l0,0h0l10.27,9.37l-4.65,0.6 l-2.38,0.31c0.12,1.33,0.3,2.64,0.53,3.94c1.97,11.11,7.8,20.26,15.84,26.54c8.05,6.29,18.32,9.72,29.15,9.37 C62.6,106.67,64.87,106.44,67.17,106.03L67.17,106.03z M117.34,46.06l-12.11-6.83l4.4-1.63l2.09-0.77 c-2.35-10.98-8.77-19.53-17.32-25.05c-9.34-6.03-21.21-8.48-33.11-6.59c-1.24,0.2-2.41-0.65-2.61-1.89s0.65-2.41,1.89-2.61 c13.03-2.07,26.04,0.62,36.3,7.25c9.37,6.05,16.44,15.36,19.18,27.3l2.36-0.87l4.48-1.66L117.34,46.06L117.34,46.06L117.34,46.06 L117.34,46.06z M86.36,77.24l12.86-9.12l12.92,9.12H86.36L86.36,77.24z M87.14,92.14v-2.99h0.88l0.84-0.66v-7.94h-1.72v-1.9h24.14 v1.9h-1.72v7.94l0.84,0.66h0.9v2.99H87.14L87.14,92.14z M92.89,89.15h0.97l0.84-0.66v-7.94h-2.66v7.94L92.89,89.15L92.89,89.15 L92.89,89.15z M98.73,89.15h0.97l0.84-0.66v-7.94h-2.66v7.94L98.73,89.15L98.73,89.15L98.73,89.15z M104.57,89.15h0.97l0.84-0.66 v-7.94h-2.66v7.94L104.57,89.15L104.57,89.15L104.57,89.15z M9.96,23.7l12.86-9.12l12.92,9.12H9.96L9.96,23.7z M10.74,38.61v-2.99 h0.88l0.84-0.66v-7.94h-1.72v-1.9h24.14v1.9h-1.72v7.94L34,35.62h0.9v2.99H10.74L10.74,38.61z M16.49,35.62h0.97l0.84-0.66v-7.94 h-2.66v7.94L16.49,35.62L16.49,35.62L16.49,35.62z M22.33,35.62h0.97l0.84-0.66v-7.94h-2.66v7.94L22.33,35.62L22.33,35.62 L22.33,35.62z M28.17,35.62h0.97l0.84-0.66v-7.94h-2.66v7.94L28.17,35.62L28.17,35.62L28.17,35.62z M97.87,61.58 c10.85,0,19.65,8.8,19.65,19.65c0,10.85-8.8,19.65-19.65,19.65c-10.85,0-19.65-8.8-19.65-19.65 C78.22,70.38,87.02,61.58,97.87,61.58L97.87,61.58z M74.22,20.26C87.2,24.57,96.93,35.99,98.81,49.9l-1.23-0.13 c-0.22,0.94-0.42,0.96-0.42,2.1c0,1,1.26,1.67,1.26,3.78c0,0.56-1.33,1.7-1.39,1.89l-1.97-2.31v2.94l-0.3-0.01l-0.53-5.42 l-1.1,0.35l-1.31-4.03l-4.31,4.5l-0.05,3.3l-1.41,0.95l-1.5-8.46l-0.89,0.65l-2.03-2.73l-3.03,0.09l-1.16-1.33l-1.19,0.33 l-2.34-2.68l-0.45,0.31l1.45,3.7l1.68,0v-0.84h0.84c0.61,1.67,1.26,0.68,1.26,1.68c0,3.49-4.31,6.06-7.14,6.72 c0.15,0.63,0.09,1.26,0.84,1.26c1.58,0,0.8-0.28,2.52-0.42c-0.08,3.57-4.09,7.83-5.8,10.48l0.77,5.47c0.2,1.19-2.47,2.44-3.37,3.78 l0.44,2.1l-1.23,0.5c-0.22,2.15-2.31,4.54-4.65,4.54l-2.52,0c0-2.95-2.1-7.15-2.1-9.24c0-1.77,0.84-2.01,0.84-4.2 c0-2.02-2.1-4.93-2.1-5.46v-3.36H53.5c-0.25-0.94-0.1-1.26-1.26-1.26h-0.42c-1.83,0-1.52,0.84-3.36,0.84l-1.68,0 c-1.51,0-4.2-4.86-4.2-5.46v-5.04c0-2.17,1.99-4.54,3.36-5.46l0-2.1l1.89-1.92l1.05-0.18c2.25,0,1.99-1.26,3.36-1.26h3.78v2.94 l4.15,1.77l0.39-1.79c1.88,0.44,2.37,1.28,4.69,1.28h0.84c1.59,0,1.68-2.11,1.68-3.78l-3.36,0.33l-1.46-3.19l-1.45,0.39 c0.26,1.14,0.4,0.67,0.4,1.63c0,0.57-0.47,0.63-0.84,0.84l-1.45-3.69l-3.13-2.23l-0.41,0.41l2.66,2.8c-0.35,1-0.4,3.91-1.86,1.88 l1.37-0.66l-3.42-3.59l-2.05,0.8l-2.02,1.94c-0.21,1.56-0.64,2.35-2.27,2.35c-1.09,0-0.43-0.28-2.1-0.42v-4.2h3.78l-1.22-2.8 l-0.45,0.28V31.3l6.13-2.83c-0.12-0.88-0.26-0.41-0.26-1.37c0-0.06,0.41-0.83,0.42-0.84l1.59,0.98l-0.38-1.81l-2.45,0.5l-0.45-2.2 c1.94-1.02,6.21-4.62,7.57-4.62l1.26,0c1.33,0,4.88,1.31,5.46,2.1l-3.37-0.34l2.5,2.06l0.24-0.88l1.87-0.51l0.02-1.17l0.84,0v1.26 L74.22,20.26L74.22,20.26L74.22,20.26z M32.33,74.82c-2.31-3.5-4-7.39-4.98-11.47l6.81,3.28l0.03,2.03c0,0.75-1.27,2.33-1.68,2.94 L32.33,74.82L32.33,74.82L32.33,74.82z M23.03,9.18c10.85,0,19.65,8.8,19.65,19.65c0,10.85-8.8,19.65-19.65,19.65 c-10.85,0-19.65-8.8-19.65-19.65C3.38,17.98,12.18,9.18,23.03,9.18L23.03,9.18z"/></g></svg>