<svg width="24" height="24" viewBox="0 0 24 24" fill="none" xmlns="http://www.w3.org/2000/svg">
<g id="Group 36427">
<g id="Group 35476">
<path id="Vector" d="M12.0006 11.9998C12.0006 11.4475 12.4483 10.9999 13.0005 10.9999H19.0001C19.5524 10.9999 20 11.4475 20 11.9998V18.9993C20 19.5516 19.5524 19.9992 19.0001 19.9992H13.0005C12.4483 19.9992 12.0006 19.5516 12.0006 18.9993V11.9998Z" stroke="#757F91" stroke-linecap="round"/>
<path id="Vector_2" d="M4 4.99993C4 4.44769 4.44769 4 4.99993 4H7.99972C8.55196 4 8.99965 4.44769 8.99965 4.99993V18.9989C8.99965 19.5512 8.55196 19.9989 7.99972 19.9989H4.99993C4.44769 19.9989 4 19.5512 4 18.9989V4.99993Z" stroke="#757F91" stroke-linecap="round"/>
<path id="Vector_3" d="M12.0006 4.99993C12.0006 4.44769 12.4483 4 13.0005 4H19.0001C19.5524 4 20 4.44769 20 4.99993V6.99979C20 7.55203 19.5524 7.99972 19.0001 7.99972H13.0005C12.4483 7.99972 12.0006 7.55203 12.0006 6.99979V4.99993Z" stroke="#757F91" stroke-linecap="round"/>
</g>
</g>
</svg>
